<svg xmlns="http://www.w3.org/2000/svg" width="168" height="40" viewBox="0 0 168 40" fill="none"><g clip-path="url(#clip0_1639_2134)"><path d="M39.9981 20.4424C39.9981 18.8027 39.8619 17.6061 39.5673 16.3652H20.4062V23.7662H31.6533C31.4267 25.6054 30.2022 28.3752 27.481 30.2365L27.4429 30.4843L33.5012 35.0706L33.921 35.1115C37.7758 31.6326 39.9981 26.5139 39.9981 20.4424Z" fill="#4285F4"></path><path d="M20.4071 39.9439C25.9173 39.9439 30.5431 38.1711 33.9219 35.1133L27.4819 30.2383C25.7586 31.4127 23.4456 32.2326 20.4071 32.2326C15.0103 32.2326 10.4299 28.7537 8.79706 23.9453L8.55773 23.9652L2.25816 28.7293L2.17578 28.9531C5.53176 35.4677 12.4252 39.9439 20.4071 39.9439Z" fill="#34A853"></path><path d="M8.7981 23.9443C8.36727 22.7034 8.11793 21.3738 8.11793 20C8.11793 18.6261 8.36727 17.2966 8.77543 16.0558L8.76402 15.7915L2.38551 10.9508L2.17682 11.0478C0.79366 13.7512 0 16.787 0 20C0 23.213 0.79366 26.2487 2.17682 28.9521L8.7981 23.9443Z" fill="#FBBC05"></path><path d="M20.4071 7.76783C24.2393 7.76783 26.8242 9.38541 28.2982 10.7372L34.0579 5.24178C30.5205 2.02878 25.9173 0.0566406 20.4071 0.0566406C12.4252 0.0566406 5.53176 4.53267 2.17578 11.0473L8.7744 16.0552C10.4299 11.2468 15.0103 7.76783 20.4071 7.76783Z" fill="#EB4335"></path></g><path d="M54.632 30V10.4H62.696C64.432 10.4 65.916 10.68 67.148 11.24C68.3987 11.8 69.36 12.6027 70.032 13.648C70.704 14.6933 71.04 15.9347 71.04 17.372C71.04 18.8093 70.704 20.0507 70.032 21.096C69.36 22.1227 68.3987 22.916 67.148 23.476C65.916 24.0173 64.432 24.288 62.696 24.288H56.648L58.272 22.636V30H54.632ZM67.456 30L62.5 22.888H66.392L71.376 30H67.456ZM58.272 23.028L56.648 21.292H62.528C64.1333 21.292 65.3373 20.9467 66.14 20.256C66.9613 19.5653 67.372 18.604 67.372 17.372C67.372 16.1213 66.9613 15.16 66.14 14.488C65.3373 13.816 64.1333 13.48 62.528 13.48H56.648L58.272 11.688V23.028ZM81.2445 30.196C79.5831 30.196 78.1271 29.8693 76.8765 29.216C75.6445 28.544 74.6831 27.6293 73.9925 26.472C73.3205 25.3147 72.9845 23.9987 72.9845 22.524C72.9845 21.0307 73.3111 19.7147 73.9645 18.576C74.6365 17.4187 75.5511 16.5133 76.7085 15.86C77.8845 15.2067 79.2191 14.88 80.7125 14.88C82.1685 14.88 83.4658 15.1973 84.6045 15.832C85.7431 16.4667 86.6391 17.3627 87.2925 18.52C87.9458 19.6773 88.2725 21.04 88.2725 22.608C88.2725 22.7573 88.2631 22.9253 88.2445 23.112C88.2445 23.2987 88.2351 23.476 88.2165 23.644H75.7565V21.32H86.3685L84.9965 22.048C85.0151 21.1893 84.8378 20.4333 84.4645 19.78C84.0911 19.1267 83.5778 18.6133 82.9245 18.24C82.2898 17.8667 81.5525 17.68 80.7125 17.68C79.8538 17.68 79.0978 17.8667 78.4445 18.24C77.8098 18.6133 77.3058 19.136 76.9325 19.808C76.5778 20.4613 76.4005 21.236 76.4005 22.132V22.692C76.4005 23.588 76.6058 24.3813 77.0165 25.072C77.4271 25.7627 78.0058 26.2947 78.7525 26.668C79.4991 27.0413 80.3578 27.228 81.3285 27.228C82.1685 27.228 82.9245 27.0973 83.5965 26.836C84.2685 26.5747 84.8658 26.164 85.3885 25.604L87.2645 27.76C86.5925 28.544 85.7431 29.1507 84.7165 29.58C83.7085 29.9907 82.5511 30.196 81.2445 30.196ZM94.777 30L88.365 15.048H92.005L97.521 28.236H95.729L101.441 15.048H104.801L98.389 30H94.777ZM106.428 30V15.048H109.929V30H106.428ZM108.192 12.584C107.539 12.584 106.998 12.3787 106.568 11.968C106.158 11.5573 105.952 11.0627 105.952 10.484C105.952 9.88667 106.158 9.392 106.568 9C106.998 8.58933 107.539 8.384 108.192 8.384C108.846 8.384 109.378 8.58 109.788 8.972C110.218 9.34533 110.432 9.82133 110.432 10.4C110.432 11.016 110.227 11.5387 109.816 11.968C109.406 12.3787 108.864 12.584 108.192 12.584ZM120.99 30.196C119.329 30.196 117.873 29.8693 116.622 29.216C115.39 28.544 114.429 27.6293 113.738 26.472C113.066 25.3147 112.73 23.9987 112.73 22.524C112.73 21.0307 113.057 19.7147 113.71 18.576C114.382 17.4187 115.297 16.5133 116.454 15.86C117.63 15.2067 118.965 14.88 120.458 14.88C121.914 14.88 123.212 15.1973 124.35 15.832C125.489 16.4667 126.385 17.3627 127.038 18.52C127.692 19.6773 128.018 21.04 128.018 22.608C128.018 22.7573 128.009 22.9253 127.99 23.112C127.99 23.2987 127.981 23.476 127.962 23.644H115.502V21.32H126.114L124.742 22.048C124.761 21.1893 124.584 20.4333 124.21 19.78C123.837 19.1267 123.324 18.6133 122.67 18.24C122.036 17.8667 121.298 17.68 120.458 17.68C119.6 17.68 118.844 17.8667 118.19 18.24C117.556 18.6133 117.052 19.136 116.678 19.808C116.324 20.4613 116.146 21.236 116.146 22.132V22.692C116.146 23.588 116.352 24.3813 116.762 25.072C117.173 25.7627 117.752 26.2947 118.498 26.668C119.245 27.0413 120.104 27.228 121.074 27.228C121.914 27.228 122.67 27.0973 123.342 26.836C124.014 26.5747 124.612 26.164 125.134 25.604L127.01 27.76C126.338 28.544 125.489 29.1507 124.462 29.58C123.454 29.9907 122.297 30.196 120.99 30.196ZM133.851 30L128.363 15.048H131.667L136.371 28.236H134.803L139.731 15.048H142.671L147.459 28.236H145.919L150.763 15.048H153.871L148.355 30H144.995L140.627 18.324H141.663L137.211 30H133.851ZM160.146 30.196C158.895 30.196 157.691 30.0373 156.534 29.72C155.395 29.384 154.49 28.9827 153.818 28.516L155.162 25.856C155.834 26.2853 156.637 26.64 157.57 26.92C158.503 27.2 159.437 27.34 160.37 27.34C161.471 27.34 162.265 27.1907 162.75 26.892C163.254 26.5933 163.506 26.192 163.506 25.688C163.506 25.2773 163.338 24.9693 163.002 24.764C162.666 24.54 162.227 24.372 161.686 24.26C161.145 24.148 160.538 24.0453 159.866 23.952C159.213 23.8587 158.55 23.7373 157.878 23.588C157.225 23.42 156.627 23.1867 156.086 22.888C155.545 22.5707 155.106 22.1507 154.77 21.628C154.434 21.1053 154.266 20.4147 154.266 19.556C154.266 18.604 154.537 17.7827 155.078 17.092C155.619 16.3827 156.375 15.8413 157.346 15.468C158.335 15.076 159.502 14.88 160.846 14.88C161.854 14.88 162.871 14.992 163.898 15.216C164.925 15.44 165.774 15.7573 166.446 16.168L165.102 18.828C164.393 18.3987 163.674 18.1093 162.946 17.96C162.237 17.792 161.527 17.708 160.818 17.708C159.754 17.708 158.961 17.8667 158.438 18.184C157.934 18.5013 157.682 18.9027 157.682 19.388C157.682 19.836 157.85 20.172 158.186 20.396C158.522 20.62 158.961 20.7973 159.502 20.928C160.043 21.0587 160.641 21.1707 161.294 21.264C161.966 21.3387 162.629 21.46 163.282 21.628C163.935 21.796 164.533 22.0293 165.074 22.328C165.634 22.608 166.082 23.0093 166.418 23.532C166.754 24.0547 166.922 24.736 166.922 25.576C166.922 26.5093 166.642 27.3213 166.082 28.012C165.541 28.7027 164.766 29.244 163.758 29.636C162.75 30.0093 161.546 30.196 160.146 30.196Z" fill="white"></path><defs><clipPath id="clip0_1639_2134"><rect width="40" height="40" fill="white"></rect></clipPath></defs></svg>